<?xml version="1.0" standalone="no"?>
<!DOCTYPE svg PUBLIC "-//W3C//DTD SVG 20010904//EN"
 "http://www.w3.org/TR/2001/REC-SVG-20010904/DTD/svg10.dtd">
<svg version="1.0" xmlns="http://www.w3.org/2000/svg"
 width="840.000000pt" height="1089.000000pt" viewBox="0 0 840.000000 1089.000000"
 preserveAspectRatio="xMidYMid meet">

<g transform="translate(0.000000,1089.000000) scale(0.100000,-0.100000)"
fill="#000000" stroke="none">
<path d="M4325 10365 c-55 -56 -160 -144 -267 -224 -98 -73 -196 -153 -219
-179 -133 -152 -149 -304 -46 -444 l21 -28 382 0 381 0 40 43 c67 73 88 128
88 233 0 86 -2 94 -42 175 -38 75 -120 190 -141 197 -5 1 -17 -16 -27 -38 -22
-48 -92 -116 -142 -136 -19 -9 -37 -14 -39 -12 -1 2 10 24 26 49 44 66 71 182
77 332 3 70 4 127 2 126 -2 -1 -44 -43 -94 -94z"/>
<path d="M2766 10022 c-14 -43 -96 -135 -286 -322 -161 -158 -192 -194 -218
-250 -37 -79 -48 -150 -32 -210 13 -53 65 -134 96 -151 17 -9 92 -3 355 27
374 42 360 37 405 127 73 144 41 287 -99 434 -38 40 -73 73 -76 73 -4 0 -13
-17 -20 -37 -7 -21 -24 -53 -38 -71 -25 -33 -100 -89 -108 -80 -3 2 4 23 14
45 31 63 45 165 38 283 -4 59 -10 117 -15 131 l-9 24 -7 -23z"/>
<path d="M5960 9939 c-63 -56 -193 -142 -338 -224 -204 -115 -306 -227 -319
-348 -6 -64 16 -150 49 -189 23 -26 28 -27 348 -62 179 -20 335 -36 347 -36
31 0 110 81 138 143 34 72 34 180 1 271 -19 53 -100 196 -111 196 -2 0 -15
-19 -28 -43 -27 -46 -79 -86 -136 -105 -53 -18 -56 -15 -21 25 40 45 71 115
94 206 16 65 33 207 25 207 -2 -1 -24 -19 -49 -41z"/>
<path d="M4123 9180 c-349 -224 -1138 -502 -2025 -715 l-198 -47 24 -42 c113
-195 219 -944 326 -2296 39 -491 43 -527 97 -703 l27 -89 44 7 c72 11 73 11
56 58 -25 71 -62 228 -73 312 -6 44 -23 224 -36 400 -88 1108 -184 1868 -278
2193 -17 57 -21 85 -13 87 6 2 79 18 161 35 83 17 258 58 390 91 625 156 1081
308 1421 474 l151 74 117 -59 c387 -193 1010 -392 1756 -560 191 -42 255 -60
253 -71 -1 -8 -16 -68 -33 -134 -88 -342 -176 -1061 -265 -2170 -28 -357 -44
-464 -87 -609 -16 -54 -25 -102 -21 -107 4 -4 29 -10 55 -14 l47 -7 25 83 c46
150 65 287 101 734 108 1347 204 2034 316 2256 l28 56 -287 71 c-530 131
-1001 276 -1369 421 -196 78 -460 205 -561 270 -34 23 -68 41 -75 41 -7 0 -40
-18 -74 -40z"/>
<path d="M4085 8906 c-353 -182 -1093 -416 -1790 -567 -82 -18 -153 -35 -157
-38 -4 -4 -1 -29 8 -56 83 -276 175 -1003 269 -2148 38 -456 48 -526 96 -680
28 -91 32 -99 52 -93 12 3 27 6 34 6 8 0 5 21 -11 68 -35 103 -60 212 -50 222
11 10 219 67 394 109 190 45 462 97 695 134 202 32 210 34 210 56 0 13 10 30
22 38 19 13 24 12 43 -7 11 -11 18 -25 15 -30 -8 -13 -11 -13 235 14 118 14
314 32 435 41 121 9 234 21 250 26 17 6 49 15 72 21 23 5 46 15 51 21 6 7 12
128 15 272 5 284 12 328 81 564 41 139 56 216 56 289 0 48 -2 53 -17 47 -10
-4 -37 -14 -60 -22 l-42 -14 -142 70 c-121 61 -149 71 -194 71 -30 0 -57 5
-62 13 -17 21 -23 65 -13 91 13 34 56 35 119 1 42 -22 271 -95 300 -95 42 0
164 121 197 198 21 47 9 82 -26 82 -24 0 -30 6 -41 38 -6 20 -16 42 -21 49 -6
7 -4 20 6 35 8 13 22 52 31 88 9 36 19 78 23 94 9 36 45 48 117 40 110 -13
145 -38 145 -104 0 -36 -35 -121 -70 -170 -30 -42 -25 -80 23 -167 l42 -78 0
-230 c0 -217 -8 -340 -35 -550 -20 -151 6 -285 102 -534 l41 -104 132 7 c73 3
158 3 190 0 50 -6 56 -9 53 -28 -3 -20 -13 -22 -223 -38 -586 -45 -1113 -141
-1675 -303 -177 -51 -589 -188 -620 -206 -20 -11 -15 -11 150 2 74 6 284 14
465 18 l330 7 215 68 c358 113 803 221 1159 281 192 33 181 34 181 -19 0 -89
-7 -103 -59 -116 -168 -41 -525 -165 -661 -229 l-62 -29 44 -6 c23 -3 127 -17
230 -30 l188 -25 126 60 c69 33 130 59 134 57 5 -2 -2 -37 -15 -78 -13 -41
-23 -76 -21 -78 2 -1 16 -4 31 -5 25 -2 29 3 47 53 52 148 67 255 113 805 49
580 100 1082 140 1382 40 295 67 444 132 718 4 18 -8 23 -134 49 -350 74 -856
210 -1188 321 -251 83 -397 141 -584 231 -84 41 -156 73 -160 73 -3 -1 -51
-25 -106 -53z m-926 -791 c18 -31 25 -35 63 -35 l42 0 -28 -29 -27 -28 21 -37
c26 -42 23 -43 -25 -15 l-36 22 -31 -29 -31 -29 6 43 c5 41 4 43 -36 67 l-42
25 37 0 c40 0 58 19 58 59 0 29 5 26 29 -14z m624 -355 c51 3 54 1 24 -24
l-29 -23 22 -43 21 -42 -40 23 -41 23 -23 -22 c-33 -31 -41 -28 -34 13 5 32 3
38 -28 58 -44 28 -44 37 0 37 33 0 35 2 41 41 l7 40 24 -41 c21 -36 29 -41 56
-40z m-1026 -55 c20 -31 26 -33 58 -28 41 7 44 -1 13 -34 -21 -22 -21 -24 -5
-58 18 -38 12 -44 -19 -20 -27 20 -44 19 -71 -7 l-23 -21 0 40 c0 37 -4 44
-37 65 l-38 23 43 3 c41 3 42 4 42 38 0 43 9 43 37 -1z m638 -76 c13 -25 21
-29 57 -29 l42 0 -27 -28 -26 -27 19 -30 c29 -43 25 -48 -19 -26 -38 20 -39
20 -56 1 -26 -29 -35 -25 -35 15 0 31 -5 39 -37 58 l-38 22 40 5 c38 5 40 7
43 43 4 42 14 41 37 -4z m1093 -368 c8 -5 12 -21 10 -37 -2 -23 -9 -30 -29
-32 -36 -4 -55 21 -41 53 12 25 36 32 60 16z m-222 -92 c8 -14 -21 -43 -35
-35 -19 12 -13 46 8 46 11 0 23 -5 27 -11z m-805 -144 c46 8 48 2 12 -29 l-27
-23 22 -37 c24 -40 18 -44 -26 -19 -28 16 -32 16 -49 2 -41 -36 -46 -35 -40 8
6 38 5 40 -36 64 l-42 24 40 3 c45 4 54 14 55 57 l1 30 26 -43 c25 -42 27 -43
64 -37z m1202 1 c7 -17 -18 -40 -33 -31 -5 3 -10 15 -10 26 0 23 35 27 43 5z
m-309 -98 c23 -37 -36 -77 -63 -44 -8 10 -11 26 -7 42 5 20 12 25 33 22 14 -2
31 -11 37 -20z m-304 -3 c26 -32 -13 -81 -47 -59 -35 22 -23 74 17 74 10 0 23
-7 30 -15z m496 -196 c8 -14 -21 -43 -35 -35 -19 12 -13 46 8 46 11 0 23 -5
27 -11z m-681 -35 c0 -10 -8 -20 -18 -22 -22 -4 -35 27 -16 39 20 12 34 5 34
-17z m421 -85 c8 -14 -21 -43 -35 -35 -19 12 -13 46 8 46 11 0 23 -5 27 -11z
m-538 -200 c6 -49 -58 -65 -73 -18 -9 27 13 51 44 47 20 -2 27 -9 29 -29z
m360 19 c30 -30 0 -75 -43 -64 -41 11 -29 76 15 76 9 0 21 -5 28 -12z m450
-71 c4 -20 -25 -34 -40 -19 -15 15 -1 44 19 40 10 -2 19 -11 21 -21z m-738
-167 c0 -13 -7 -20 -19 -20 -22 0 -35 15 -26 30 12 19 45 11 45 -10z m510 -5
c0 -18 -5 -25 -19 -25 -11 0 -21 6 -24 13 -7 20 4 37 24 37 14 0 19 -7 19 -25z
m-216 -78 c11 -8 17 -23 14 -38 -2 -20 -8 -24 -38 -24 -30 0 -36 4 -38 24 -4
22 18 51 38 51 3 0 14 -6 24 -13z m-464 -22 c26 -32 -13 -81 -47 -59 -35 22
-23 74 17 74 10 0 23 -7 30 -15z m950 0 c16 -19 4 -52 -22 -61 -30 -9 -62 29
-48 57 13 22 52 25 70 4z"/>
<path d="M5172 6613 c-49 -134 -66 -279 -56 -470 l7 -133 51 1 c49 0 179 29
192 42 3 3 -10 45 -31 92 -79 184 -125 358 -125 471 0 30 -4 54 -9 54 -5 0
-18 -26 -29 -57z"/>
<path d="M3730 5419 c-592 -29 -1181 -120 -1630 -251 -138 -40 -170 -57 -170
-90 0 -10 43 -121 95 -247 52 -127 95 -234 95 -239 0 -4 -26 -16 -57 -26 -96
-30 -282 -104 -352 -141 -74 -39 -141 -90 -141 -108 0 -17 239 -590 251 -601
6 -6 9 -6 9 2 0 17 119 91 220 137 47 21 166 65 265 97 222 73 251 95 224 176
-22 66 -166 198 -301 276 -83 48 -74 92 24 125 189 62 583 141 912 181 557 69
1240 78 1816 24 421 -39 890 -123 1138 -205 98 -33 107 -77 24 -125 -129 -74
-269 -200 -297 -266 -20 -50 -19 -61 10 -96 21 -25 53 -39 186 -82 256 -82
479 -186 508 -238 11 -20 13 -18 161 341 56 136 99 254 96 262 -7 20 -79 71
-150 107 -67 34 -252 107 -338 134 -32 10 -58 22 -58 26 0 5 43 112 95 239 52
126 95 237 95 247 0 32 -31 49 -155 86 -692 204 -1659 300 -2575 255z m426
-206 c16 -27 48 -82 71 -123 l43 -75 0 123 0 123 28 -3 27 -3 3 -167 2 -168
-37 0 c-38 0 -38 0 -107 120 -38 66 -69 120 -70 120 -1 0 0 -54 2 -120 l4
-120 -31 0 -31 0 0 170 0 170 34 0 c30 0 37 -6 62 -47z m-322 5 c6 -35 36
-288 36 -302 0 -4 -15 -6 -32 -4 l-33 3 -12 115 c-6 63 -12 117 -13 120 -1 3
-16 -49 -35 -114 -50 -177 -69 -179 -131 -16 l-43 115 0 -122 -1 -123 -30 0
-30 0 0 169 0 169 38 5 c47 6 51 1 98 -130 l38 -106 13 59 c8 32 23 89 34 127
l20 67 39 0 c36 0 39 -2 44 -32z m150 -29 c3 -34 6 -111 6 -170 l0 -109 -29 0
c-27 0 -28 2 -35 61 -3 34 -6 111 -6 170 l0 109 29 0 c27 0 28 -2 35 -61z
m616 36 c0 -23 -3 -24 -67 -27 l-68 -3 0 -40 0 -40 63 -3 c58 -3 62 -4 62 -27
0 -24 -3 -25 -65 -25 l-65 0 0 -44 c0 -41 2 -44 31 -50 17 -3 49 -6 70 -6 35
0 39 -3 39 -25 0 -25 0 -25 -99 -25 -55 0 -102 4 -105 8 -3 5 -2 81 1 170 l6
162 99 0 c97 0 98 0 98 -25z m351 -2 c6 -6 8 -21 4 -33 -7 -22 -15 -22 -76 -4
-24 7 -62 -27 -54 -48 4 -9 31 -31 60 -47 60 -34 75 -54 75 -101 0 -44 -16
-69 -55 -86 -60 -25 -165 -9 -165 24 0 36 13 42 58 27 98 -34 140 40 49 86
-64 32 -87 58 -87 96 0 71 44 105 128 100 29 -2 57 -8 63 -14z m-1521 -27 c0
-23 -5 -25 -65 -31 -36 -4 -65 -11 -65 -15 0 -4 3 -22 6 -40 l7 -32 61 4 c60
3 61 3 64 -24 3 -26 1 -28 -31 -28 -19 0 -47 -3 -63 -6 -28 -5 -29 -8 -25 -51
l3 -45 72 4 c66 3 71 2 74 -19 4 -26 -7 -30 -120 -39 -88 -6 -88 -6 -88 17 -1
13 -7 87 -14 164 -8 77 -11 143 -8 147 8 7 61 14 140 16 49 2 52 1 52 -22z
m1759 14 c37 0 51 -12 44 -38 -5 -21 -9 -22 -68 -16 -59 6 -62 5 -68 -17 -14
-52 -10 -57 51 -65 70 -8 70 -8 65 -36 -4 -22 -8 -23 -69 -20 l-64 4 0 -45 0
-45 65 -7 c71 -8 77 -11 69 -41 -5 -19 -10 -19 -102 -11 -53 5 -99 11 -101 13
-5 4 17 263 26 308 l5 29 61 -7 c33 -3 72 -6 86 -6z m-2030 -26 c2 -2 1 -13
-2 -26 -6 -21 -11 -23 -50 -20 -42 4 -77 -14 -77 -38 0 -17 32 -40 70 -50 62
-17 100 -55 100 -99 0 -68 -55 -111 -142 -111 -52 0 -71 11 -66 36 3 15 12 19
43 20 56 0 92 11 99 30 11 28 -13 53 -60 65 -66 17 -104 52 -104 96 0 59 25
87 95 104 27 6 84 2 94 -7z m2353 -14 c45 -13 52 -23 38 -50 -9 -16 -15 -18
-30 -10 -11 6 -41 11 -66 12 -75 1 -124 -48 -124 -124 0 -48 41 -96 90 -107
50 -11 60 -5 60 40 0 35 -2 39 -26 39 -22 0 -25 4 -22 28 3 25 6 27 43 24 79
-6 78 -5 70 -91 -8 -95 -18 -104 -101 -98 -82 6 -138 38 -164 92 -23 47 -25
73 -9 128 27 100 127 148 241 117z m-2712 -27 c0 -4 -14 -44 -31 -90 l-31 -82
61 -71 c33 -39 61 -75 61 -81 0 -5 -15 -9 -34 -9 -29 0 -41 8 -77 51 l-43 52
-21 -63 c-16 -47 -27 -65 -45 -72 -48 -18 -50 -7 -14 87 l33 89 -59 72 c-33
40 -60 74 -60 77 0 3 16 7 35 9 33 4 38 0 77 -51 23 -30 43 -51 44 -45 33 118
36 123 57 127 37 7 47 7 47 0z m2963 -14 c59 -9 77 -15 77 -28 0 -34 -12 -39
-73 -28 -65 12 -77 5 -77 -45 0 -25 4 -28 49 -34 63 -8 75 -16 66 -43 -6 -20
-11 -22 -48 -15 -76 13 -80 12 -89 -26 -11 -51 -6 -57 54 -64 67 -9 79 -16 71
-45 -5 -20 -10 -22 -37 -17 -17 4 -61 12 -98 18 -38 6 -68 16 -68 22 0 6 12
82 27 169 25 148 28 158 47 153 12 -2 56 -10 99 -17z m-3269 -55 c11 -29 7
-32 -51 -45 -32 -7 -61 -15 -65 -18 -4 -4 -3 -23 2 -43 l10 -35 60 12 c65 14
70 12 70 -20 0 -18 -9 -23 -61 -34 -47 -9 -59 -15 -55 -27 3 -9 6 -23 6 -32 1
-39 13 -44 80 -31 52 10 63 10 71 -2 5 -8 9 -19 9 -25 0 -13 -191 -57 -200
-47 -12 14 -73 314 -65 321 7 7 137 39 166 41 9 1 20 -6 23 -15z m3556 0 c41
-16 47 -27 31 -53 -8 -12 -14 -13 -36 -3 -41 19 -83 15 -95 -9 -10 -17 -7 -24
20 -47 78 -66 90 -81 90 -111 0 -46 -19 -78 -58 -97 -30 -14 -43 -15 -87 -5
-75 17 -92 32 -77 65 l12 26 32 -20 c57 -34 108 -24 108 21 0 22 -9 35 -45 59
-51 35 -65 56 -65 97 0 77 79 113 170 77z"/>
<path d="M3945 4721 c-27 -12 -197 -156 -309 -260 -50 -47 -103 -96 -118 -110
l-27 -24 -63 43 c-96 67 -222 165 -287 226 -51 47 -64 54 -100 54 -22 0 -41
-4 -41 -9 0 -5 35 -41 78 -80 211 -191 461 -360 744 -502 128 -64 352 -159
375 -159 28 0 242 93 408 179 206 105 337 186 498 307 122 92 296 248 287 257
-3 3 -34 7 -70 10 -36 3 -52 3 -35 -1 l29 -7 -79 -68 c-196 -169 -410 -310
-660 -437 -206 -104 -358 -164 -399 -156 -75 14 -73 21 28 149 126 158 315
373 420 476 l85 85 208 -13 c114 -7 235 -14 268 -16 33 -2 13 2 -45 10 -197
27 -504 46 -840 50 -193 3 -343 1 -355 -4z"/>
<path d="M2831 4618 l-44 -10 69 -70 c160 -162 363 -322 584 -461 145 -92 500
-269 645 -323 115 -42 118 -42 285 26 424 171 821 424 1118 714 124 121 123
117 29 131 l-47 7 -97 -90 c-290 -266 -652 -492 -1045 -651 l-127 -51 -73 26
c-379 137 -844 423 -1120 690 -83 80 -89 82 -177 62z"/>
<path d="M4455 2980 c-123 -25 -178 -94 -161 -198 11 -70 61 -114 183 -159 82
-31 113 -54 113 -83 0 -60 -123 -66 -228 -12 l-62 32 0 -60 c0 -59 0 -60 38
-78 130 -66 312 -46 373 40 23 32 35 101 25 143 -13 53 -72 101 -176 145 -54
23 -104 48 -110 55 -28 34 14 75 77 75 27 0 114 -23 166 -45 16 -7 18 -2 15
51 l-3 59 -50 16 c-65 21 -150 29 -200 19z"/>
<path d="M810 2800 c0 -98 5 -202 11 -229 23 -110 113 -178 251 -188 148 -11
255 35 302 129 25 51 26 57 26 260 l0 208 -70 0 -70 0 0 -172 c0 -95 -5 -190
-10 -210 -29 -102 -177 -130 -256 -47 l-29 30 -3 200 -3 199 -75 0 -74 0 0
-180z"/>
<path d="M1530 2685 l0 -295 75 0 75 0 2 186 3 186 160 -186 159 -186 63 0 63
0 0 295 0 296 -72 -3 -73 -3 -5 -174 -5 -175 -154 177 -154 177 -69 0 -68 0 0
-295z"/>
<path d="M2270 2685 l0 -296 73 3 72 3 0 290 0 290 -72 3 -73 3 0 -296z"/>
<path d="M2492 2971 c2 -5 66 -140 142 -300 139 -290 140 -291 171 -291 l32 0
133 293 c73 160 135 295 137 300 2 4 -31 7 -75 7 l-79 0 -73 -165 c-40 -91
-75 -163 -79 -160 -4 2 -40 76 -81 164 l-73 161 -79 0 c-44 0 -78 -4 -76 -9z"/>
<path d="M3180 2685 l0 -295 215 0 215 0 0 55 0 55 -145 0 -146 0 3 68 3 67
133 3 132 3 0 54 0 55 -135 0 -136 0 3 58 3 57 143 3 142 3 0 54 0 55 -215 0
-215 0 0 -295z"/>
<path d="M3730 2685 l0 -295 70 0 69 0 3 118 3 117 33 3 c46 5 82 -35 133
-147 l42 -91 78 0 c44 0 79 2 79 5 0 17 -112 234 -129 249 l-21 19 41 36 c36
32 42 43 47 89 6 63 -9 102 -54 142 -48 41 -90 50 -251 50 l-143 0 0 -295z
m278 169 c15 -10 22 -25 22 -48 0 -48 -26 -66 -96 -69 l-59 -2 -3 68 -3 67 58
0 c37 0 67 -6 81 -16z"/>
<path d="M4840 2685 l0 -295 75 0 75 0 0 295 0 295 -75 0 -75 0 0 -295z"/>
<path d="M5130 2685 l0 -297 183 4 c164 3 187 6 232 26 60 27 109 72 138 127
32 58 32 212 0 271 -31 59 -79 103 -143 133 -51 24 -68 26 -232 29 l-178 4 0
-297z m340 162 c85 -45 116 -162 68 -257 -37 -70 -64 -84 -174 -88 l-94 -4 0
186 0 186 78 0 c63 0 88 -5 122 -23z"/>
<path d="M5941 2958 c-5 -13 -58 -146 -119 -295 l-111 -273 78 0 78 0 19 53
19 52 136 3 136 3 23 -56 22 -55 79 0 78 0 -29 68 c-16 37 -74 168 -129 292
l-100 225 -86 3 c-81 3 -86 2 -94 -20z m146 -240 c23 -56 41 -103 39 -105 -2
-2 -42 -3 -89 -1 l-85 3 40 108 c23 59 43 105 46 102 4 -3 25 -51 49 -107z"/>
<path d="M6450 2685 l0 -297 183 4 c196 4 233 12 313 73 87 66 116 235 60 348
-15 31 -45 72 -68 91 -67 58 -111 68 -310 74 l-178 4 0 -297z m340 163 c53
-27 85 -72 94 -130 11 -82 -18 -151 -84 -195 -28 -19 -46 -23 -116 -23 l-84 0
0 185 0 185 73 0 c56 0 83 -5 117 -22z"/>
<path d="M7150 2685 l0 -295 215 0 215 0 0 55 0 55 -145 0 -146 0 3 68 3 67
133 3 132 3 0 54 0 55 -135 0 -135 0 0 60 0 60 145 0 145 0 0 55 0 55 -215 0
-215 0 0 -295z"/>
<path d="M540 1745 l0 -295 75 0 75 0 0 120 0 120 130 0 130 0 0 55 0 55 -130
0 -130 0 0 65 0 65 130 0 130 0 0 55 0 55 -205 0 -205 0 0 -295z"/>
<path d="M1070 1745 l0 -295 216 0 215 0 -3 53 -3 52 -125 2 c-69 1 -133 2
-143 2 -16 1 -18 9 -15 69 l3 67 133 3 132 3 0 54 0 55 -135 0 -135 0 0 60 0
60 145 0 145 0 0 55 0 55 -215 0 -215 0 0 -295z"/>
<path d="M1620 1745 l0 -297 183 4 c164 3 187 6 232 26 60 27 109 72 138 127
32 58 32 212 0 271 -31 59 -79 103 -143 133 -51 24 -68 26 -232 29 l-178 4 0
-297z m340 162 c80 -42 113 -152 75 -245 -32 -75 -78 -102 -176 -103 -111 -2
-99 -25 -99 186 l0 185 78 0 c63 0 88 -5 122 -23z"/>
<path d="M2310 1745 l0 -295 220 0 220 0 0 50 c0 28 -3 51 -7 51 -7 1 -103 5
-235 8 l-48 1 0 70 0 70 136 0 135 0 -3 53 -3 52 -132 3 -133 3 0 59 0 60 140
0 140 0 0 55 0 55 -215 0 -215 0 0 -295z"/>
<path d="M2860 1746 l0 -296 75 0 75 0 0 120 0 120 26 0 c59 0 89 -32 141
-152 l38 -88 82 0 82 0 -50 108 c-28 59 -63 121 -79 137 l-29 30 33 22 c37 24
66 77 66 120 -1 49 -35 110 -81 140 -42 27 -46 28 -211 31 l-168 4 0 -296z
m290 164 c22 -22 26 -51 10 -80 -11 -21 -67 -40 -117 -40 l-33 0 0 70 0 70 60
0 c47 0 64 -4 80 -20z"/>
<path d="M3617 2023 c-3 -10 -55 -141 -116 -291 -61 -151 -111 -276 -111 -278
0 -3 34 -4 76 -2 l77 3 20 53 c14 36 27 54 41 58 12 3 71 4 132 2 l109 -3 28
-57 28 -58 75 0 c68 0 75 2 70 18 -4 9 -62 142 -129 294 l-122 277 -86 1 c-74
0 -87 -3 -92 -17z m142 -237 c22 -55 41 -103 41 -108 0 -4 -38 -8 -85 -8 -47
0 -85 3 -85 8 0 8 69 192 77 205 7 11 6 14 52 -97z"/>
<path d="M4130 1745 l0 -295 226 0 225 0 -3 53 -3 52 -140 2 c-77 1 -146 2
-152 3 -10 0 -13 55 -13 240 l0 240 -70 0 -70 0 0 -295z"/>
<path d="M4900 1746 l0 -296 75 0 75 0 0 120 0 120 29 0 c47 0 84 -41 132
-145 l44 -95 78 0 c74 0 78 1 72 20 -17 54 -90 194 -115 224 l-29 32 29 17
c41 24 74 98 65 145 -9 53 -47 106 -92 128 -31 16 -66 19 -200 22 l-163 4 0
-296z m285 159 c28 -27 29 -33 15 -69 -10 -27 -59 -46 -117 -46 l-33 0 0 70 0
70 55 0 c46 0 60 -4 80 -25z"/>
<path d="M5460 1833 c0 -237 6 -260 77 -324 56 -51 101 -64 218 -64 91 0 105
3 160 30 72 36 110 86 125 164 5 29 10 132 10 227 l0 174 -75 0 -75 0 0 -189
c0 -179 -1 -190 -23 -222 -32 -48 -81 -71 -140 -66 -57 5 -95 30 -119 78 -15
29 -18 63 -18 217 l0 182 -70 0 -70 0 0 -207z"/>
<path d="M6175 2027 c-3 -7 -4 -138 -3 -292 l3 -280 73 -3 72 -3 0 122 0 122
40 -6 c23 -3 48 -11 57 -19 9 -7 39 -59 65 -115 l50 -103 79 0 79 0 -26 58
c-14 31 -33 73 -41 92 -8 19 -30 56 -48 82 l-34 46 25 17 c58 38 82 131 49
194 -20 39 -69 78 -113 91 -56 15 -321 13 -327 -3z m285 -117 c11 -11 20 -33
20 -48 0 -44 -28 -63 -96 -65 l-59 -2 -3 68 -3 67 61 0 c47 0 64 -4 80 -20z"/>
<path d="M6937 2033 c-5 -8 -175 -425 -216 -530 l-21 -53 78 0 78 0 21 58 20
57 132 3 131 3 26 -61 27 -60 78 0 78 0 -50 113 c-28 61 -87 194 -131 295
l-81 182 -83 0 c-46 0 -85 -3 -87 -7z m138 -254 l43 -104 -85 -3 c-47 -2 -87
-1 -89 1 -3 2 14 52 37 111 23 59 43 105 46 103 2 -3 24 -51 48 -108z"/>
<path d="M7440 1745 l0 -295 226 0 225 0 -3 53 -3 52 -144 3 c-80 1 -147 5
-150 8 -3 3 -6 110 -6 237 l0 232 -72 3 -73 3 0 -296z"/>
<path d="M7129 1100 c-69 -12 -132 -43 -182 -89 -117 -109 -122 -298 -10 -413
97 -100 296 -125 451 -58 l42 19 0 62 c0 54 -2 61 -17 56 -10 -4 -52 -18 -93
-33 -60 -21 -85 -25 -128 -20 -72 9 -127 38 -158 86 -23 35 -26 47 -22 105 3
55 8 69 33 96 49 51 95 69 177 69 54 0 88 -7 133 -25 33 -14 61 -25 63 -25 1
0 2 29 2 64 l0 65 -53 20 c-63 23 -173 33 -238 21z"/>
<path d="M7790 1100 c-70 -12 -115 -35 -169 -85 -68 -63 -94 -122 -95 -210 -2
-123 61 -217 184 -274 47 -22 69 -26 150 -26 81 0 103 4 150 26 122 57 185
150 185 274 0 86 -26 144 -92 210 -72 70 -200 105 -313 85z m172 -142 c57 -32
83 -80 83 -153 0 -131 -102 -207 -236 -175 -163 39 -185 255 -34 338 36 20
143 14 187 -10z"/>
<path d="M210 805 l0 -297 183 4 c214 4 257 17 330 98 51 56 67 103 67 192 0
127 -48 206 -158 260 l-67 33 -177 3 -178 4 0 -297z m336 166 c23 -10 52 -34
65 -52 21 -29 24 -45 24 -116 0 -67 -4 -87 -21 -109 -43 -58 -68 -69 -170 -72
l-94 -4 0 186 0 186 78 0 c53 0 90 -6 118 -19z"/>
<path d="M910 805 l0 -295 216 0 215 0 -3 53 -3 52 -142 3 -143 3 0 69 0 70
135 0 135 0 0 55 0 55 -135 0 -135 0 0 60 0 60 140 0 140 0 0 55 0 55 -210 0
-210 0 0 -295z"/>
<path d="M1700 806 l0 -296 75 0 75 0 0 120 0 120 84 0 c95 0 128 9 170 48 82
77 70 206 -25 269 -42 27 -46 28 -211 31 l-168 4 0 -296z m296 159 c19 -26 17
-59 -5 -86 -14 -18 -31 -23 -80 -27 l-61 -4 0 72 0 72 66 -4 c50 -3 70 -9 80
-23z"/>
<path d="M2270 805 l0 -295 215 0 215 0 0 55 0 55 -145 0 -145 0 0 70 0 70
135 0 135 0 0 55 0 55 -135 0 -135 0 0 60 0 60 140 0 140 0 0 55 0 55 -210 0
-210 0 0 -295z"/>
<path d="M2810 805 l0 -295 75 0 75 0 0 120 0 120 25 0 c58 0 85 -27 136 -136
l49 -104 80 0 79 0 -25 55 c-44 100 -84 175 -105 196 l-21 21 40 36 c68 63 70
157 3 223 -49 50 -90 59 -263 59 l-148 0 0 -295z m290 165 c11 -11 20 -31 20
-45 0 -44 -32 -65 -100 -65 l-60 0 0 65 0 65 60 0 c47 0 64 -4 80 -20z"/>
<path d="M3400 805 l0 -295 75 0 75 0 2 186 3 185 159 -185 159 -186 64 0 63
0 0 295 0 295 -75 0 -75 0 -2 -177 -3 -177 -155 177 -155 177 -67 0 -68 0 0
-295z"/>
<path d="M4307 1093 c-4 -7 -197 -482 -228 -560 -8 -23 -7 -23 69 -23 l77 0
20 53 21 52 136 3 135 3 23 -56 22 -55 79 0 79 0 -26 58 c-14 31 -73 164 -131
295 l-105 237 -84 0 c-45 0 -85 -3 -87 -7z m139 -256 l42 -102 -85 -3 c-47 -2
-87 -1 -89 1 -3 2 2 19 9 38 8 19 27 67 42 107 15 40 30 70 33 67 3 -3 25 -52
48 -108z"/>
<path d="M4810 805 l0 -295 75 0 75 0 2 179 3 178 78 -88 c43 -49 82 -89 86
-89 5 0 44 41 87 92 l79 92 3 -182 2 -182 70 0 c39 0 70 3 71 8 3 26 4 559 1
570 -3 8 -25 12 -63 12 l-58 0 -97 -111 c-94 -106 -99 -109 -113 -91 -9 11
-51 61 -95 111 l-79 91 -63 0 -64 0 0 -295z"/>
<path d="M5580 805 l0 -297 188 4 c154 2 193 6 219 20 49 27 76 73 81 137 4
67 -19 110 -73 142 l-35 21 30 34 c34 39 45 73 36 110 -11 43 -37 74 -80 97
-36 19 -60 22 -203 25 l-163 4 0 -297z m279 159 c26 -33 26 -45 2 -75 -16 -20
-28 -23 -77 -24 l-59 0 -3 63 -3 62 60 0 c52 0 62 -3 80 -26z m10 -215 c39
-14 54 -41 46 -80 -9 -40 -31 -49 -119 -49 l-76 0 0 63 c0 35 3 67 7 70 10 11
107 8 142 -4z"/>
<path d="M6162 888 c3 -195 5 -216 25 -253 28 -52 57 -79 118 -107 72 -33 228
-33 300 0 61 28 90 55 118 107 20 37 22 58 25 253 l3 212 -75 0 -76 0 0 -190
c0 -220 -5 -240 -73 -271 -53 -24 -91 -24 -144 0 -68 31 -73 51 -73 271 l0
190 -76 0 -75 0 3 -212z"/>
</g>
</svg>
